<mxfile host="app.diagrams.net" modified="2024-05-05T15:51:33.309Z" agent="Mozilla/5.0 (Windows NT 10.0; Win64; x64; rv:125.0) Gecko/20100101 Firefox/125.0" etag="w6srUEbrLlA3eioupntr" version="24.3.1" type="device">
  <diagram name="Page-1" id="uMqA1R6x-6Gs1QEI-oIA">
    <mxGraphModel dx="1050" dy="599" grid="0" gridSize="10" guides="1" tooltips="1" connect="1" arrows="1" fold="1" page="0" pageScale="1" pageWidth="827" pageHeight="1169" math="0" shadow="0">
      <root>
        <mxCell id="0" />
        <mxCell id="1" parent="0" />
        <mxCell id="IIHGYazNjYMF4p0EDvYy-1" value="" style="rounded=0;whiteSpace=wrap;html=1;" parent="1" vertex="1">
          <mxGeometry x="20" y="130" width="120" height="90" as="geometry" />
        </mxCell>
        <mxCell id="IIHGYazNjYMF4p0EDvYy-2" value="Project Description v0.1" style="rounded=0;whiteSpace=wrap;html=1;" parent="1" vertex="1">
          <mxGeometry x="20" y="130" width="120" height="30" as="geometry" />
        </mxCell>
        <mxCell id="IIHGYazNjYMF4p0EDvYy-3" value="1" style="rounded=0;whiteSpace=wrap;html=1;" parent="1" vertex="1">
          <mxGeometry x="20" y="160" width="30" height="30" as="geometry" />
        </mxCell>
        <mxCell id="IIHGYazNjYMF4p0EDvYy-4" value="3" style="whiteSpace=wrap;html=1;aspect=fixed;" parent="1" vertex="1">
          <mxGeometry x="49.5" y="160" width="30" height="30" as="geometry" />
        </mxCell>
        <mxCell id="IIHGYazNjYMF4p0EDvYy-5" value="5" style="whiteSpace=wrap;html=1;aspect=fixed;" parent="1" vertex="1">
          <mxGeometry x="80" y="160" width="30" height="30" as="geometry" />
        </mxCell>
        <mxCell id="IIHGYazNjYMF4p0EDvYy-6" value="10" style="whiteSpace=wrap;html=1;aspect=fixed;" parent="1" vertex="1">
          <mxGeometry x="110" y="160" width="30" height="30" as="geometry" />
        </mxCell>
        <mxCell id="IIHGYazNjYMF4p0EDvYy-7" value="28 Feb 2024" style="rounded=0;whiteSpace=wrap;html=1;" parent="1" vertex="1">
          <mxGeometry x="20" y="190" width="60" height="30" as="geometry" />
        </mxCell>
        <mxCell id="IIHGYazNjYMF4p0EDvYy-8" value="3 March 2024" style="rounded=0;whiteSpace=wrap;html=1;" parent="1" vertex="1">
          <mxGeometry x="80" y="190" width="60" height="30" as="geometry" />
        </mxCell>
        <mxCell id="IIHGYazNjYMF4p0EDvYy-9" value="&#xa;&lt;span style=&quot;color: rgb(0, 0, 0); font-family: Helvetica; font-size: 12px; font-style: normal; font-variant-ligatures: normal; font-variant-caps: normal; font-weight: 400; letter-spacing: normal; orphans: 2; text-align: center; text-indent: 0px; text-transform: none; widows: 2; word-spacing: 0px; -webkit-text-stroke-width: 0px; background-color: rgb(251, 251, 251); text-decoration-thickness: initial; text-decoration-style: initial; text-decoration-color: initial; float: none; display: inline !important;&quot;&gt;6 April 2024&lt;/span&gt;&#xa;&#xa;" style="rounded=0;whiteSpace=wrap;html=1;" parent="1" vertex="1">
          <mxGeometry x="674.5" y="471" width="120" height="90" as="geometry" />
        </mxCell>
        <mxCell id="IIHGYazNjYMF4p0EDvYy-10" value="Sequence Diagrams v0.1" style="rounded=0;whiteSpace=wrap;html=1;" parent="1" vertex="1">
          <mxGeometry x="674.5" y="471" width="120" height="30" as="geometry" />
        </mxCell>
        <mxCell id="IIHGYazNjYMF4p0EDvYy-11" value="9" style="rounded=0;whiteSpace=wrap;html=1;" parent="1" vertex="1">
          <mxGeometry x="674.5" y="501" width="30" height="30" as="geometry" />
        </mxCell>
        <mxCell id="IIHGYazNjYMF4p0EDvYy-12" value="6" style="whiteSpace=wrap;html=1;aspect=fixed;" parent="1" vertex="1">
          <mxGeometry x="704" y="501" width="30" height="30" as="geometry" />
        </mxCell>
        <mxCell id="IIHGYazNjYMF4p0EDvYy-13" value="7" style="whiteSpace=wrap;html=1;aspect=fixed;" parent="1" vertex="1">
          <mxGeometry x="734.5" y="501" width="30" height="30" as="geometry" />
        </mxCell>
        <mxCell id="IIHGYazNjYMF4p0EDvYy-14" value="15" style="whiteSpace=wrap;html=1;aspect=fixed;" parent="1" vertex="1">
          <mxGeometry x="764.5" y="501" width="30" height="30" as="geometry" />
        </mxCell>
        <mxCell id="IIHGYazNjYMF4p0EDvYy-269" style="edgeStyle=none;curved=1;rounded=0;orthogonalLoop=1;jettySize=auto;html=1;exitX=0;exitY=1;exitDx=0;exitDy=0;entryX=0.5;entryY=0;entryDx=0;entryDy=0;fontSize=12;startSize=8;endSize=8;fillColor=#f8cecc;strokeColor=#FF0000;" parent="1" source="IIHGYazNjYMF4p0EDvYy-15" target="IIHGYazNjYMF4p0EDvYy-75" edge="1">
          <mxGeometry relative="1" as="geometry" />
        </mxCell>
        <mxCell id="IIHGYazNjYMF4p0EDvYy-15" value="24 April 2024" style="rounded=0;whiteSpace=wrap;html=1;" parent="1" vertex="1">
          <mxGeometry x="734.5" y="531" width="60" height="30" as="geometry" />
        </mxCell>
        <mxCell id="IIHGYazNjYMF4p0EDvYy-16" value="" style="rounded=0;whiteSpace=wrap;html=1;" parent="1" vertex="1">
          <mxGeometry x="190" y="20" width="120" height="90" as="geometry" />
        </mxCell>
        <mxCell id="IIHGYazNjYMF4p0EDvYy-17" value="Project Plan v0.1" style="rounded=0;whiteSpace=wrap;html=1;" parent="1" vertex="1">
          <mxGeometry x="190" y="20" width="120" height="30" as="geometry" />
        </mxCell>
        <mxCell id="IIHGYazNjYMF4p0EDvYy-18" value="2" style="rounded=0;whiteSpace=wrap;html=1;" parent="1" vertex="1">
          <mxGeometry x="190" y="50" width="30" height="30" as="geometry" />
        </mxCell>
        <mxCell id="IIHGYazNjYMF4p0EDvYy-19" value="5" style="whiteSpace=wrap;html=1;aspect=fixed;" parent="1" vertex="1">
          <mxGeometry x="219.5" y="50" width="30" height="30" as="geometry" />
        </mxCell>
        <mxCell id="IIHGYazNjYMF4p0EDvYy-20" value="8" style="whiteSpace=wrap;html=1;aspect=fixed;" parent="1" vertex="1">
          <mxGeometry x="250" y="50" width="30" height="30" as="geometry" />
        </mxCell>
        <mxCell id="IIHGYazNjYMF4p0EDvYy-21" value="13" style="whiteSpace=wrap;html=1;aspect=fixed;" parent="1" vertex="1">
          <mxGeometry x="280" y="50" width="30" height="30" as="geometry" />
        </mxCell>
        <mxCell id="IIHGYazNjYMF4p0EDvYy-22" value="4 March 2024" style="rounded=0;whiteSpace=wrap;html=1;" parent="1" vertex="1">
          <mxGeometry x="190" y="80" width="60" height="30" as="geometry" />
        </mxCell>
        <mxCell id="IIHGYazNjYMF4p0EDvYy-23" value="11 March 2024" style="rounded=0;whiteSpace=wrap;html=1;" parent="1" vertex="1">
          <mxGeometry x="250" y="80" width="60" height="30" as="geometry" />
        </mxCell>
        <mxCell id="IIHGYazNjYMF4p0EDvYy-24" value="" style="rounded=0;whiteSpace=wrap;html=1;" parent="1" vertex="1">
          <mxGeometry x="190" y="130" width="120" height="90" as="geometry" />
        </mxCell>
        <mxCell id="IIHGYazNjYMF4p0EDvYy-25" value="Team Plan v0.1" style="rounded=0;whiteSpace=wrap;html=1;" parent="1" vertex="1">
          <mxGeometry x="190" y="130" width="120" height="30" as="geometry" />
        </mxCell>
        <mxCell id="IIHGYazNjYMF4p0EDvYy-26" value="3" style="rounded=0;whiteSpace=wrap;html=1;" parent="1" vertex="1">
          <mxGeometry x="190" y="160" width="30" height="30" as="geometry" />
        </mxCell>
        <mxCell id="IIHGYazNjYMF4p0EDvYy-27" value="5" style="whiteSpace=wrap;html=1;aspect=fixed;" parent="1" vertex="1">
          <mxGeometry x="219.5" y="160" width="30" height="30" as="geometry" />
        </mxCell>
        <mxCell id="IIHGYazNjYMF4p0EDvYy-28" value="10" style="whiteSpace=wrap;html=1;aspect=fixed;" parent="1" vertex="1">
          <mxGeometry x="250" y="160" width="30" height="30" as="geometry" />
        </mxCell>
        <mxCell id="IIHGYazNjYMF4p0EDvYy-29" value="15" style="whiteSpace=wrap;html=1;aspect=fixed;" parent="1" vertex="1">
          <mxGeometry x="280" y="160" width="30" height="30" as="geometry" />
        </mxCell>
        <mxCell id="IIHGYazNjYMF4p0EDvYy-30" value="4 March 2024" style="rounded=0;whiteSpace=wrap;html=1;" parent="1" vertex="1">
          <mxGeometry x="190" y="190" width="60" height="30" as="geometry" />
        </mxCell>
        <mxCell id="IIHGYazNjYMF4p0EDvYy-31" value="13 March 2024" style="rounded=0;whiteSpace=wrap;html=1;" parent="1" vertex="1">
          <mxGeometry x="250" y="190" width="60" height="30" as="geometry" />
        </mxCell>
        <mxCell id="IIHGYazNjYMF4p0EDvYy-32" value="" style="rounded=0;whiteSpace=wrap;html=1;" parent="1" vertex="1">
          <mxGeometry x="190" y="240" width="120" height="90" as="geometry" />
        </mxCell>
        <mxCell id="IIHGYazNjYMF4p0EDvYy-33" value="Risk Assessment v0.1" style="rounded=0;whiteSpace=wrap;html=1;" parent="1" vertex="1">
          <mxGeometry x="190" y="240" width="120" height="30" as="geometry" />
        </mxCell>
        <mxCell id="IIHGYazNjYMF4p0EDvYy-34" value="4" style="rounded=0;whiteSpace=wrap;html=1;" parent="1" vertex="1">
          <mxGeometry x="190" y="270" width="30" height="30" as="geometry" />
        </mxCell>
        <mxCell id="IIHGYazNjYMF4p0EDvYy-35" value="3" style="whiteSpace=wrap;html=1;aspect=fixed;" parent="1" vertex="1">
          <mxGeometry x="219.5" y="270" width="30" height="30" as="geometry" />
        </mxCell>
        <mxCell id="IIHGYazNjYMF4p0EDvYy-36" value="5" style="whiteSpace=wrap;html=1;aspect=fixed;" parent="1" vertex="1">
          <mxGeometry x="250" y="270" width="30" height="30" as="geometry" />
        </mxCell>
        <mxCell id="IIHGYazNjYMF4p0EDvYy-37" value="7" style="whiteSpace=wrap;html=1;aspect=fixed;" parent="1" vertex="1">
          <mxGeometry x="280" y="270" width="30" height="30" as="geometry" />
        </mxCell>
        <mxCell id="IIHGYazNjYMF4p0EDvYy-38" value="4 March 2024" style="rounded=0;whiteSpace=wrap;html=1;" parent="1" vertex="1">
          <mxGeometry x="190" y="300" width="60" height="30" as="geometry" />
        </mxCell>
        <mxCell id="IIHGYazNjYMF4p0EDvYy-39" value="8 March 2024" style="rounded=0;whiteSpace=wrap;html=1;" parent="1" vertex="1">
          <mxGeometry x="250" y="300" width="60" height="30" as="geometry" />
        </mxCell>
        <mxCell id="IIHGYazNjYMF4p0EDvYy-40" value="" style="rounded=0;whiteSpace=wrap;html=1;" parent="1" vertex="1">
          <mxGeometry x="360" y="130" width="120" height="90" as="geometry" />
        </mxCell>
        <mxCell id="IIHGYazNjYMF4p0EDvYy-41" value="Use Cases v0.1" style="rounded=0;whiteSpace=wrap;html=1;" parent="1" vertex="1">
          <mxGeometry x="360" y="130" width="120" height="30" as="geometry" />
        </mxCell>
        <mxCell id="IIHGYazNjYMF4p0EDvYy-42" value="5" style="rounded=0;whiteSpace=wrap;html=1;" parent="1" vertex="1">
          <mxGeometry x="360" y="160" width="30" height="30" as="geometry" />
        </mxCell>
        <mxCell id="IIHGYazNjYMF4p0EDvYy-43" value="10" style="whiteSpace=wrap;html=1;aspect=fixed;" parent="1" vertex="1">
          <mxGeometry x="389.5" y="160" width="30" height="30" as="geometry" />
        </mxCell>
        <mxCell id="IIHGYazNjYMF4p0EDvYy-44" value="17" style="whiteSpace=wrap;html=1;aspect=fixed;" parent="1" vertex="1">
          <mxGeometry x="420" y="160" width="30" height="30" as="geometry" />
        </mxCell>
        <mxCell id="IIHGYazNjYMF4p0EDvYy-45" value="25" style="whiteSpace=wrap;html=1;aspect=fixed;" parent="1" vertex="1">
          <mxGeometry x="450" y="160" width="30" height="30" as="geometry" />
        </mxCell>
        <mxCell id="IIHGYazNjYMF4p0EDvYy-46" value="14 March 2024" style="rounded=0;whiteSpace=wrap;html=1;" parent="1" vertex="1">
          <mxGeometry x="360" y="190" width="60" height="30" as="geometry" />
        </mxCell>
        <mxCell id="IIHGYazNjYMF4p0EDvYy-47" value="30 March 2024" style="rounded=0;whiteSpace=wrap;html=1;" parent="1" vertex="1">
          <mxGeometry x="420" y="190" width="60" height="30" as="geometry" />
        </mxCell>
        <mxCell id="IIHGYazNjYMF4p0EDvYy-48" value="" style="rounded=0;whiteSpace=wrap;html=1;" parent="1" vertex="1">
          <mxGeometry x="530" y="130" width="120" height="90" as="geometry" />
        </mxCell>
        <mxCell id="IIHGYazNjYMF4p0EDvYy-49" value="Domain Model v0.1" style="rounded=0;whiteSpace=wrap;html=1;" parent="1" vertex="1">
          <mxGeometry x="530" y="130" width="120" height="30" as="geometry" />
        </mxCell>
        <mxCell id="IIHGYazNjYMF4p0EDvYy-50" value="6" style="rounded=0;whiteSpace=wrap;html=1;" parent="1" vertex="1">
          <mxGeometry x="530" y="160" width="30" height="30" as="geometry" />
        </mxCell>
        <mxCell id="IIHGYazNjYMF4p0EDvYy-51" value="3" style="whiteSpace=wrap;html=1;aspect=fixed;" parent="1" vertex="1">
          <mxGeometry x="559.5" y="160" width="30" height="30" as="geometry" />
        </mxCell>
        <mxCell id="IIHGYazNjYMF4p0EDvYy-52" value="7" style="whiteSpace=wrap;html=1;aspect=fixed;" parent="1" vertex="1">
          <mxGeometry x="590" y="160" width="30" height="30" as="geometry" />
        </mxCell>
        <mxCell id="IIHGYazNjYMF4p0EDvYy-53" value="9" style="whiteSpace=wrap;html=1;aspect=fixed;" parent="1" vertex="1">
          <mxGeometry x="620" y="160" width="30" height="30" as="geometry" />
        </mxCell>
        <mxCell id="IIHGYazNjYMF4p0EDvYy-54" value="31 March 2024" style="rounded=0;whiteSpace=wrap;html=1;" parent="1" vertex="1">
          <mxGeometry x="530" y="190" width="60" height="30" as="geometry" />
        </mxCell>
        <mxCell id="IIHGYazNjYMF4p0EDvYy-55" value="6 April 2024" style="rounded=0;whiteSpace=wrap;html=1;" parent="1" vertex="1">
          <mxGeometry x="590" y="190" width="60" height="30" as="geometry" />
        </mxCell>
        <mxCell id="IIHGYazNjYMF4p0EDvYy-56" value="&lt;font style=&quot;font-size: 10px;&quot;&gt;1o Παραδοτέο&lt;/font&gt;" style="rhombus;whiteSpace=wrap;html=1;fillColor=#F3FF4F;" parent="1" vertex="1">
          <mxGeometry x="694.5" y="135" width="80" height="80" as="geometry" />
        </mxCell>
        <mxCell id="IIHGYazNjYMF4p0EDvYy-57" value="" style="endArrow=classic;html=1;rounded=0;exitX=1;exitY=0.5;exitDx=0;exitDy=0;entryX=0;entryY=0.5;entryDx=0;entryDy=0;strokeColor=#000000;" parent="1" source="IIHGYazNjYMF4p0EDvYy-6" target="IIHGYazNjYMF4p0EDvYy-18" edge="1">
          <mxGeometry width="50" height="50" relative="1" as="geometry">
            <mxPoint x="490" y="160" as="sourcePoint" />
            <mxPoint x="540" y="110" as="targetPoint" />
          </mxGeometry>
        </mxCell>
        <mxCell id="IIHGYazNjYMF4p0EDvYy-58" value="" style="endArrow=classic;html=1;rounded=0;exitX=1;exitY=0.5;exitDx=0;exitDy=0;entryX=0;entryY=0.5;entryDx=0;entryDy=0;strokeColor=#F50000;" parent="1" source="IIHGYazNjYMF4p0EDvYy-6" target="IIHGYazNjYMF4p0EDvYy-26" edge="1">
          <mxGeometry width="50" height="50" relative="1" as="geometry">
            <mxPoint x="490" y="160" as="sourcePoint" />
            <mxPoint x="540" y="110" as="targetPoint" />
          </mxGeometry>
        </mxCell>
        <mxCell id="IIHGYazNjYMF4p0EDvYy-59" value="" style="endArrow=classic;html=1;rounded=0;exitX=1;exitY=0.5;exitDx=0;exitDy=0;entryX=0;entryY=0.5;entryDx=0;entryDy=0;" parent="1" source="IIHGYazNjYMF4p0EDvYy-6" target="IIHGYazNjYMF4p0EDvYy-34" edge="1">
          <mxGeometry width="50" height="50" relative="1" as="geometry">
            <mxPoint x="490" y="160" as="sourcePoint" />
            <mxPoint x="540" y="110" as="targetPoint" />
          </mxGeometry>
        </mxCell>
        <mxCell id="IIHGYazNjYMF4p0EDvYy-60" value="" style="endArrow=classic;html=1;rounded=0;exitX=1;exitY=0.25;exitDx=0;exitDy=0;entryX=0;entryY=0.5;entryDx=0;entryDy=0;" parent="1" source="IIHGYazNjYMF4p0EDvYy-37" target="IIHGYazNjYMF4p0EDvYy-42" edge="1">
          <mxGeometry width="50" height="50" relative="1" as="geometry">
            <mxPoint x="490" y="160" as="sourcePoint" />
            <mxPoint x="540" y="110" as="targetPoint" />
          </mxGeometry>
        </mxCell>
        <mxCell id="IIHGYazNjYMF4p0EDvYy-61" value="" style="endArrow=classic;html=1;rounded=0;exitX=1;exitY=0.5;exitDx=0;exitDy=0;entryX=0;entryY=0.5;entryDx=0;entryDy=0;strokeColor=#000000;" parent="1" source="IIHGYazNjYMF4p0EDvYy-21" target="IIHGYazNjYMF4p0EDvYy-42" edge="1">
          <mxGeometry width="50" height="50" relative="1" as="geometry">
            <mxPoint x="490" y="160" as="sourcePoint" />
            <mxPoint x="540" y="110" as="targetPoint" />
          </mxGeometry>
        </mxCell>
        <mxCell id="IIHGYazNjYMF4p0EDvYy-62" value="" style="endArrow=classic;html=1;rounded=0;exitX=1;exitY=0.5;exitDx=0;exitDy=0;entryX=0;entryY=0.5;entryDx=0;entryDy=0;strokeColor=#FF0000;" parent="1" source="IIHGYazNjYMF4p0EDvYy-29" target="IIHGYazNjYMF4p0EDvYy-42" edge="1">
          <mxGeometry width="50" height="50" relative="1" as="geometry">
            <mxPoint x="490" y="160" as="sourcePoint" />
            <mxPoint x="540" y="110" as="targetPoint" />
          </mxGeometry>
        </mxCell>
        <mxCell id="IIHGYazNjYMF4p0EDvYy-63" value="" style="endArrow=classic;html=1;rounded=0;exitX=1;exitY=0.5;exitDx=0;exitDy=0;entryX=0;entryY=0.5;entryDx=0;entryDy=0;strokeColor=#FF0000;" parent="1" source="IIHGYazNjYMF4p0EDvYy-45" target="IIHGYazNjYMF4p0EDvYy-50" edge="1">
          <mxGeometry width="50" height="50" relative="1" as="geometry">
            <mxPoint x="490" y="160" as="sourcePoint" />
            <mxPoint x="540" y="110" as="targetPoint" />
          </mxGeometry>
        </mxCell>
        <mxCell id="IIHGYazNjYMF4p0EDvYy-64" value="" style="endArrow=classic;html=1;rounded=0;exitX=1;exitY=0.5;exitDx=0;exitDy=0;entryX=0;entryY=0.5;entryDx=0;entryDy=0;strokeColor=#FF0000;" parent="1" source="IIHGYazNjYMF4p0EDvYy-53" target="IIHGYazNjYMF4p0EDvYy-56" edge="1">
          <mxGeometry width="50" height="50" relative="1" as="geometry">
            <mxPoint x="490" y="160" as="sourcePoint" />
            <mxPoint x="540" y="110" as="targetPoint" />
          </mxGeometry>
        </mxCell>
        <mxCell id="IIHGYazNjYMF4p0EDvYy-65" value="7 April 2024" style="text;html=1;align=center;verticalAlign=middle;resizable=0;points=[];autosize=1;strokeColor=none;fillColor=none;" parent="1" vertex="1">
          <mxGeometry x="689.5" y="110" width="90" height="30" as="geometry" />
        </mxCell>
        <mxCell id="IIHGYazNjYMF4p0EDvYy-66" value="" style="rounded=0;whiteSpace=wrap;html=1;" parent="1" vertex="1">
          <mxGeometry x="674.5" y="362" width="120" height="90" as="geometry" />
        </mxCell>
        <mxCell id="IIHGYazNjYMF4p0EDvYy-67" value="Robustness Diagrams v0.1" style="rounded=0;whiteSpace=wrap;html=1;" parent="1" vertex="1">
          <mxGeometry x="674.5" y="362" width="120" height="30" as="geometry" />
        </mxCell>
        <mxCell id="IIHGYazNjYMF4p0EDvYy-68" value="8" style="rounded=0;whiteSpace=wrap;html=1;" parent="1" vertex="1">
          <mxGeometry x="674.5" y="392" width="30" height="30" as="geometry" />
        </mxCell>
        <mxCell id="IIHGYazNjYMF4p0EDvYy-69" value="6" style="whiteSpace=wrap;html=1;aspect=fixed;" parent="1" vertex="1">
          <mxGeometry x="704" y="392" width="30" height="30" as="geometry" />
        </mxCell>
        <mxCell id="IIHGYazNjYMF4p0EDvYy-70" value="7" style="whiteSpace=wrap;html=1;aspect=fixed;" parent="1" vertex="1">
          <mxGeometry x="734.5" y="392" width="30" height="30" as="geometry" />
        </mxCell>
        <mxCell id="IIHGYazNjYMF4p0EDvYy-71" value="15" style="whiteSpace=wrap;html=1;aspect=fixed;" parent="1" vertex="1">
          <mxGeometry x="764.5" y="392" width="30" height="30" as="geometry" />
        </mxCell>
        <mxCell id="IIHGYazNjYMF4p0EDvYy-72" value="11 April 2024" style="rounded=0;whiteSpace=wrap;html=1;" parent="1" vertex="1">
          <mxGeometry x="674.5" y="422" width="60" height="30" as="geometry" />
        </mxCell>
        <mxCell id="IIHGYazNjYMF4p0EDvYy-73" value="17 April 2024" style="rounded=0;whiteSpace=wrap;html=1;" parent="1" vertex="1">
          <mxGeometry x="734.5" y="422" width="60" height="30" as="geometry" />
        </mxCell>
        <mxCell id="IIHGYazNjYMF4p0EDvYy-74" value="" style="rounded=0;whiteSpace=wrap;html=1;" parent="1" vertex="1">
          <mxGeometry x="674.5" y="583.5" width="120" height="90" as="geometry" />
        </mxCell>
        <mxCell id="IIHGYazNjYMF4p0EDvYy-75" value="Domain Model v0.2" style="rounded=0;whiteSpace=wrap;html=1;" parent="1" vertex="1">
          <mxGeometry x="674.5" y="583.5" width="120" height="30" as="geometry" />
        </mxCell>
        <mxCell id="IIHGYazNjYMF4p0EDvYy-76" value="10" style="rounded=0;whiteSpace=wrap;html=1;" parent="1" vertex="1">
          <mxGeometry x="674.5" y="613.5" width="30" height="30" as="geometry" />
        </mxCell>
        <mxCell id="IIHGYazNjYMF4p0EDvYy-77" value="1" style="whiteSpace=wrap;html=1;aspect=fixed;" parent="1" vertex="1">
          <mxGeometry x="704" y="613.5" width="30" height="30" as="geometry" />
        </mxCell>
        <mxCell id="IIHGYazNjYMF4p0EDvYy-78" value="3" style="whiteSpace=wrap;html=1;aspect=fixed;" parent="1" vertex="1">
          <mxGeometry x="734.5" y="613.5" width="30" height="30" as="geometry" />
        </mxCell>
        <mxCell id="IIHGYazNjYMF4p0EDvYy-79" value="4" style="whiteSpace=wrap;html=1;aspect=fixed;" parent="1" vertex="1">
          <mxGeometry x="764.5" y="613.5" width="30" height="30" as="geometry" />
        </mxCell>
        <mxCell id="IIHGYazNjYMF4p0EDvYy-80" value="25 April 2024" style="rounded=0;whiteSpace=wrap;html=1;" parent="1" vertex="1">
          <mxGeometry x="674.5" y="643.5" width="60" height="30" as="geometry" />
        </mxCell>
        <mxCell id="IIHGYazNjYMF4p0EDvYy-81" value="27 April 2024" style="rounded=0;whiteSpace=wrap;html=1;" parent="1" vertex="1">
          <mxGeometry x="734.5" y="643.5" width="60" height="30" as="geometry" />
        </mxCell>
        <mxCell id="IIHGYazNjYMF4p0EDvYy-82" value="" style="rounded=0;whiteSpace=wrap;html=1;" parent="1" vertex="1">
          <mxGeometry x="498" y="860" width="60" height="30" as="geometry" />
        </mxCell>
        <mxCell id="9pA1eYLYO4tWEtrX-LZe-10" style="edgeStyle=none;curved=1;rounded=0;orthogonalLoop=1;jettySize=auto;html=1;exitX=0;exitY=0.5;exitDx=0;exitDy=0;entryX=1;entryY=0.5;entryDx=0;entryDy=0;fontSize=12;startSize=8;endSize=8;strokeColor=#FF0000;" parent="1" source="IIHGYazNjYMF4p0EDvYy-91" target="9pA1eYLYO4tWEtrX-LZe-6" edge="1">
          <mxGeometry relative="1" as="geometry" />
        </mxCell>
        <mxCell id="IIHGYazNjYMF4p0EDvYy-91" value="&lt;font style=&quot;font-size: 10px;&quot;&gt;2o Παραδοτέο&lt;/font&gt;" style="rhombus;whiteSpace=wrap;html=1;fillColor=#F3FF4F;" parent="1" vertex="1">
          <mxGeometry x="508.5" y="526" width="80" height="80" as="geometry" />
        </mxCell>
        <mxCell id="IIHGYazNjYMF4p0EDvYy-92" value="28 Αpril 2024" style="text;html=1;align=center;verticalAlign=middle;resizable=0;points=[];autosize=1;strokeColor=none;fillColor=none;" parent="1" vertex="1">
          <mxGeometry x="503.5" y="499" width="90" height="30" as="geometry" />
        </mxCell>
        <mxCell id="IIHGYazNjYMF4p0EDvYy-93" value="18 April 2024" style="rounded=0;whiteSpace=wrap;html=1;" parent="1" vertex="1">
          <mxGeometry x="674.5" y="531" width="60" height="30" as="geometry" />
        </mxCell>
        <mxCell id="IIHGYazNjYMF4p0EDvYy-94" value="" style="endArrow=classic;html=1;rounded=0;exitX=0;exitY=1;exitDx=0;exitDy=0;strokeColor=#FF0800;" parent="1" source="IIHGYazNjYMF4p0EDvYy-102" target="IIHGYazNjYMF4p0EDvYy-104" edge="1">
          <mxGeometry width="50" height="50" relative="1" as="geometry">
            <mxPoint x="205.5" y="606" as="sourcePoint" />
            <mxPoint x="255.5" y="556" as="targetPoint" />
          </mxGeometry>
        </mxCell>
        <mxCell id="IIHGYazNjYMF4p0EDvYy-95" value="" style="rounded=0;whiteSpace=wrap;html=1;" parent="1" vertex="1">
          <mxGeometry x="20" y="521" width="120" height="90" as="geometry" />
        </mxCell>
        <mxCell id="IIHGYazNjYMF4p0EDvYy-96" value="Domain Model v0.3" style="rounded=0;whiteSpace=wrap;html=1;" parent="1" vertex="1">
          <mxGeometry x="20" y="521" width="120" height="30" as="geometry" />
        </mxCell>
        <mxCell id="IIHGYazNjYMF4p0EDvYy-97" value="15" style="rounded=0;whiteSpace=wrap;html=1;" parent="1" vertex="1">
          <mxGeometry x="20" y="551" width="30" height="30" as="geometry" />
        </mxCell>
        <mxCell id="IIHGYazNjYMF4p0EDvYy-98" value="1" style="whiteSpace=wrap;html=1;aspect=fixed;" parent="1" vertex="1">
          <mxGeometry x="49.5" y="551" width="30" height="30" as="geometry" />
        </mxCell>
        <mxCell id="IIHGYazNjYMF4p0EDvYy-99" value="2" style="whiteSpace=wrap;html=1;aspect=fixed;" parent="1" vertex="1">
          <mxGeometry x="79.5" y="551" width="30" height="30" as="geometry" />
        </mxCell>
        <mxCell id="IIHGYazNjYMF4p0EDvYy-100" value="5" style="whiteSpace=wrap;html=1;aspect=fixed;" parent="1" vertex="1">
          <mxGeometry x="110" y="551" width="30" height="30" as="geometry" />
        </mxCell>
        <mxCell id="IIHGYazNjYMF4p0EDvYy-101" value="10 May 2024" style="rounded=0;whiteSpace=wrap;html=1;" parent="1" vertex="1">
          <mxGeometry x="20" y="581" width="60" height="30" as="geometry" />
        </mxCell>
        <mxCell id="IIHGYazNjYMF4p0EDvYy-102" value="11 May 2024" style="rounded=0;whiteSpace=wrap;html=1;" parent="1" vertex="1">
          <mxGeometry x="80" y="581" width="60" height="30" as="geometry" />
        </mxCell>
        <mxCell id="IIHGYazNjYMF4p0EDvYy-103" value="" style="rounded=0;whiteSpace=wrap;html=1;" parent="1" vertex="1">
          <mxGeometry x="20.5" y="632" width="120" height="90" as="geometry" />
        </mxCell>
        <mxCell id="IIHGYazNjYMF4p0EDvYy-104" value="Class diagram v0.1" style="rounded=0;whiteSpace=wrap;html=1;" parent="1" vertex="1">
          <mxGeometry x="20.5" y="632" width="120" height="30" as="geometry" />
        </mxCell>
        <mxCell id="IIHGYazNjYMF4p0EDvYy-105" value="16" style="rounded=0;whiteSpace=wrap;html=1;" parent="1" vertex="1">
          <mxGeometry x="20.5" y="662" width="30" height="30" as="geometry" />
        </mxCell>
        <mxCell id="IIHGYazNjYMF4p0EDvYy-106" value="1" style="whiteSpace=wrap;html=1;aspect=fixed;" parent="1" vertex="1">
          <mxGeometry x="50" y="662" width="30" height="30" as="geometry" />
        </mxCell>
        <mxCell id="IIHGYazNjYMF4p0EDvYy-107" value="2" style="whiteSpace=wrap;html=1;aspect=fixed;" parent="1" vertex="1">
          <mxGeometry x="80.5" y="662" width="30" height="30" as="geometry" />
        </mxCell>
        <mxCell id="IIHGYazNjYMF4p0EDvYy-108" value="4" style="whiteSpace=wrap;html=1;aspect=fixed;" parent="1" vertex="1">
          <mxGeometry x="110.5" y="662" width="30" height="30" as="geometry" />
        </mxCell>
        <mxCell id="IIHGYazNjYMF4p0EDvYy-109" value="12 May 2024" style="rounded=0;whiteSpace=wrap;html=1;" parent="1" vertex="1">
          <mxGeometry x="20.5" y="692" width="60" height="30" as="geometry" />
        </mxCell>
        <mxCell id="IIHGYazNjYMF4p0EDvYy-110" value="&amp;nbsp;13 May 2024" style="rounded=0;whiteSpace=wrap;html=1;" parent="1" vertex="1">
          <mxGeometry x="80.5" y="692" width="60" height="30" as="geometry" />
        </mxCell>
        <mxCell id="IIHGYazNjYMF4p0EDvYy-122" value="&lt;font style=&quot;font-size: 10px;&quot;&gt;3o Παραδοτέο&lt;/font&gt;" style="rhombus;whiteSpace=wrap;html=1;fillColor=#F3FF4F;" parent="1" vertex="1">
          <mxGeometry x="168.75" y="844" width="80" height="80" as="geometry" />
        </mxCell>
        <mxCell id="IIHGYazNjYMF4p0EDvYy-123" value="26 May 2024" style="text;html=1;align=center;verticalAlign=middle;resizable=0;points=[];autosize=1;strokeColor=none;fillColor=none;" parent="1" vertex="1">
          <mxGeometry x="167" y="922" width="90" height="30" as="geometry" />
        </mxCell>
        <mxCell id="IIHGYazNjYMF4p0EDvYy-124" value="" style="rounded=0;whiteSpace=wrap;html=1;" parent="1" vertex="1">
          <mxGeometry x="478" y="840" width="120" height="90" as="geometry" />
        </mxCell>
        <mxCell id="IIHGYazNjYMF4p0EDvYy-125" value="Team Plan v1.0" style="rounded=0;whiteSpace=wrap;html=1;" parent="1" vertex="1">
          <mxGeometry x="478" y="840" width="120" height="30" as="geometry" />
        </mxCell>
        <mxCell id="IIHGYazNjYMF4p0EDvYy-126" value="20" style="rounded=0;whiteSpace=wrap;html=1;" parent="1" vertex="1">
          <mxGeometry x="478" y="870" width="30" height="30" as="geometry" />
        </mxCell>
        <mxCell id="IIHGYazNjYMF4p0EDvYy-127" value="1" style="whiteSpace=wrap;html=1;aspect=fixed;" parent="1" vertex="1">
          <mxGeometry x="507.5" y="870" width="30" height="30" as="geometry" />
        </mxCell>
        <mxCell id="IIHGYazNjYMF4p0EDvYy-128" value="1" style="whiteSpace=wrap;html=1;aspect=fixed;" parent="1" vertex="1">
          <mxGeometry x="538" y="870" width="30" height="30" as="geometry" />
        </mxCell>
        <mxCell id="IIHGYazNjYMF4p0EDvYy-129" value="3" style="whiteSpace=wrap;html=1;aspect=fixed;" parent="1" vertex="1">
          <mxGeometry x="568" y="870" width="30" height="30" as="geometry" />
        </mxCell>
        <mxCell id="IIHGYazNjYMF4p0EDvYy-130" value="28 May 2024" style="rounded=0;whiteSpace=wrap;html=1;" parent="1" vertex="1">
          <mxGeometry x="478" y="900" width="60" height="30" as="geometry" />
        </mxCell>
        <mxCell id="IIHGYazNjYMF4p0EDvYy-131" value="28 May 2024" style="rounded=0;whiteSpace=wrap;html=1;" parent="1" vertex="1">
          <mxGeometry x="538" y="900" width="60" height="30" as="geometry" />
        </mxCell>
        <mxCell id="IIHGYazNjYMF4p0EDvYy-132" value="" style="rounded=0;whiteSpace=wrap;html=1;" parent="1" vertex="1">
          <mxGeometry x="644.5" y="839" width="120" height="90" as="geometry" />
        </mxCell>
        <mxCell id="IIHGYazNjYMF4p0EDvYy-133" value="Use Cases v1.0" style="rounded=0;whiteSpace=wrap;html=1;" parent="1" vertex="1">
          <mxGeometry x="644.5" y="839" width="120" height="30" as="geometry" />
        </mxCell>
        <mxCell id="IIHGYazNjYMF4p0EDvYy-134" value="22" style="rounded=0;whiteSpace=wrap;html=1;" parent="1" vertex="1">
          <mxGeometry x="644.5" y="869" width="30" height="30" as="geometry" />
        </mxCell>
        <mxCell id="IIHGYazNjYMF4p0EDvYy-135" value="1" style="whiteSpace=wrap;html=1;aspect=fixed;" parent="1" vertex="1">
          <mxGeometry x="674" y="869" width="30" height="30" as="geometry" />
        </mxCell>
        <mxCell id="IIHGYazNjYMF4p0EDvYy-136" value="1" style="whiteSpace=wrap;html=1;aspect=fixed;" parent="1" vertex="1">
          <mxGeometry x="704.5" y="869" width="30" height="30" as="geometry" />
        </mxCell>
        <mxCell id="IIHGYazNjYMF4p0EDvYy-137" value="2" style="whiteSpace=wrap;html=1;aspect=fixed;" parent="1" vertex="1">
          <mxGeometry x="734.5" y="869" width="30" height="30" as="geometry" />
        </mxCell>
        <mxCell id="IIHGYazNjYMF4p0EDvYy-138" value="29 May 2024" style="rounded=0;whiteSpace=wrap;html=1;" parent="1" vertex="1">
          <mxGeometry x="644.5" y="899" width="60" height="30" as="geometry" />
        </mxCell>
        <mxCell id="IIHGYazNjYMF4p0EDvYy-139" value="29 May 2024" style="rounded=0;whiteSpace=wrap;html=1;" parent="1" vertex="1">
          <mxGeometry x="704.5" y="899" width="60" height="30" as="geometry" />
        </mxCell>
        <mxCell id="IIHGYazNjYMF4p0EDvYy-140" value="" style="rounded=0;whiteSpace=wrap;html=1;" parent="1" vertex="1">
          <mxGeometry x="295" y="840" width="120" height="90" as="geometry" />
        </mxCell>
        <mxCell id="IIHGYazNjYMF4p0EDvYy-141" value="Project Description v1.0" style="rounded=0;whiteSpace=wrap;html=1;" parent="1" vertex="1">
          <mxGeometry x="295" y="840" width="120" height="30" as="geometry" />
        </mxCell>
        <mxCell id="IIHGYazNjYMF4p0EDvYy-142" value="18" style="rounded=0;whiteSpace=wrap;html=1;" parent="1" vertex="1">
          <mxGeometry x="295" y="870" width="30" height="30" as="geometry" />
        </mxCell>
        <mxCell id="IIHGYazNjYMF4p0EDvYy-143" value="1" style="whiteSpace=wrap;html=1;aspect=fixed;" parent="1" vertex="1">
          <mxGeometry x="324.5" y="870" width="30" height="30" as="geometry" />
        </mxCell>
        <mxCell id="IIHGYazNjYMF4p0EDvYy-144" value="1" style="whiteSpace=wrap;html=1;aspect=fixed;" parent="1" vertex="1">
          <mxGeometry x="355" y="870" width="30" height="30" as="geometry" />
        </mxCell>
        <mxCell id="IIHGYazNjYMF4p0EDvYy-145" value="2" style="whiteSpace=wrap;html=1;aspect=fixed;" parent="1" vertex="1">
          <mxGeometry x="385" y="870" width="30" height="30" as="geometry" />
        </mxCell>
        <mxCell id="IIHGYazNjYMF4p0EDvYy-146" value="27 May 2024" style="rounded=0;whiteSpace=wrap;html=1;" parent="1" vertex="1">
          <mxGeometry x="295" y="900" width="60" height="30" as="geometry" />
        </mxCell>
        <mxCell id="IIHGYazNjYMF4p0EDvYy-147" value="27 May 2024" style="rounded=0;whiteSpace=wrap;html=1;" parent="1" vertex="1">
          <mxGeometry x="355" y="900" width="60" height="30" as="geometry" />
        </mxCell>
        <mxCell id="IIHGYazNjYMF4p0EDvYy-148" value="" style="rounded=0;whiteSpace=wrap;html=1;" parent="1" vertex="1">
          <mxGeometry x="481" y="724" width="120" height="90" as="geometry" />
        </mxCell>
        <mxCell id="IIHGYazNjYMF4p0EDvYy-149" value="Project Plan v1.0" style="rounded=0;whiteSpace=wrap;html=1;" parent="1" vertex="1">
          <mxGeometry x="481" y="724" width="120" height="30" as="geometry" />
        </mxCell>
        <mxCell id="IIHGYazNjYMF4p0EDvYy-150" value="19" style="rounded=0;whiteSpace=wrap;html=1;" parent="1" vertex="1">
          <mxGeometry x="481" y="754" width="30" height="30" as="geometry" />
        </mxCell>
        <mxCell id="IIHGYazNjYMF4p0EDvYy-151" value="1" style="whiteSpace=wrap;html=1;aspect=fixed;" parent="1" vertex="1">
          <mxGeometry x="510.5" y="754" width="30" height="30" as="geometry" />
        </mxCell>
        <mxCell id="IIHGYazNjYMF4p0EDvYy-152" value="1" style="whiteSpace=wrap;html=1;aspect=fixed;" parent="1" vertex="1">
          <mxGeometry x="541" y="754" width="30" height="30" as="geometry" />
        </mxCell>
        <mxCell id="IIHGYazNjYMF4p0EDvYy-153" value="2" style="whiteSpace=wrap;html=1;aspect=fixed;" parent="1" vertex="1">
          <mxGeometry x="571" y="754" width="30" height="30" as="geometry" />
        </mxCell>
        <mxCell id="IIHGYazNjYMF4p0EDvYy-154" value="28 May 2024" style="rounded=0;whiteSpace=wrap;html=1;" parent="1" vertex="1">
          <mxGeometry x="541" y="784" width="60" height="30" as="geometry" />
        </mxCell>
        <mxCell id="IIHGYazNjYMF4p0EDvYy-155" value="" style="rounded=0;whiteSpace=wrap;html=1;" parent="1" vertex="1">
          <mxGeometry x="481.5" y="964" width="120" height="90" as="geometry" />
        </mxCell>
        <mxCell id="IIHGYazNjYMF4p0EDvYy-156" value="Risk Assesment v1.0" style="rounded=0;whiteSpace=wrap;html=1;" parent="1" vertex="1">
          <mxGeometry x="480.5" y="963" width="120" height="30" as="geometry" />
        </mxCell>
        <mxCell id="IIHGYazNjYMF4p0EDvYy-157" value="21" style="rounded=0;whiteSpace=wrap;html=1;" parent="1" vertex="1">
          <mxGeometry x="481.5" y="994" width="30" height="30" as="geometry" />
        </mxCell>
        <mxCell id="IIHGYazNjYMF4p0EDvYy-158" value="1" style="whiteSpace=wrap;html=1;aspect=fixed;" parent="1" vertex="1">
          <mxGeometry x="511" y="994" width="30" height="30" as="geometry" />
        </mxCell>
        <mxCell id="IIHGYazNjYMF4p0EDvYy-159" value="1" style="whiteSpace=wrap;html=1;aspect=fixed;" parent="1" vertex="1">
          <mxGeometry x="541.5" y="994" width="30" height="30" as="geometry" />
        </mxCell>
        <mxCell id="IIHGYazNjYMF4p0EDvYy-160" value="2" style="whiteSpace=wrap;html=1;aspect=fixed;" parent="1" vertex="1">
          <mxGeometry x="571.5" y="994" width="30" height="30" as="geometry" />
        </mxCell>
        <mxCell id="IIHGYazNjYMF4p0EDvYy-161" value="28 May 2024" style="rounded=0;whiteSpace=wrap;html=1;" parent="1" vertex="1">
          <mxGeometry x="481.5" y="1024" width="60" height="30" as="geometry" />
        </mxCell>
        <mxCell id="IIHGYazNjYMF4p0EDvYy-162" value="28 May 2024" style="rounded=0;whiteSpace=wrap;html=1;" parent="1" vertex="1">
          <mxGeometry x="541.5" y="1024" width="60" height="30" as="geometry" />
        </mxCell>
        <mxCell id="IIHGYazNjYMF4p0EDvYy-163" value="" style="rounded=0;whiteSpace=wrap;html=1;" parent="1" vertex="1">
          <mxGeometry x="331" y="1037" width="120" height="90" as="geometry" />
        </mxCell>
        <mxCell id="IIHGYazNjYMF4p0EDvYy-164" value="Domain Model v1.0" style="rounded=0;whiteSpace=wrap;html=1;" parent="1" vertex="1">
          <mxGeometry x="331" y="1037" width="120" height="30" as="geometry" />
        </mxCell>
        <mxCell id="IIHGYazNjYMF4p0EDvYy-165" value="25" style="rounded=0;whiteSpace=wrap;html=1;" parent="1" vertex="1">
          <mxGeometry x="331" y="1067" width="30" height="30" as="geometry" />
        </mxCell>
        <mxCell id="IIHGYazNjYMF4p0EDvYy-166" value="1" style="whiteSpace=wrap;html=1;aspect=fixed;" parent="1" vertex="1">
          <mxGeometry x="360.5" y="1067" width="30" height="30" as="geometry" />
        </mxCell>
        <mxCell id="IIHGYazNjYMF4p0EDvYy-167" value="1" style="whiteSpace=wrap;html=1;aspect=fixed;" parent="1" vertex="1">
          <mxGeometry x="391" y="1067" width="30" height="30" as="geometry" />
        </mxCell>
        <mxCell id="IIHGYazNjYMF4p0EDvYy-168" value="2" style="whiteSpace=wrap;html=1;aspect=fixed;" parent="1" vertex="1">
          <mxGeometry x="421" y="1067" width="30" height="30" as="geometry" />
        </mxCell>
        <mxCell id="IIHGYazNjYMF4p0EDvYy-169" value="1 June 2024" style="rounded=0;whiteSpace=wrap;html=1;" parent="1" vertex="1">
          <mxGeometry x="331" y="1097" width="60" height="30" as="geometry" />
        </mxCell>
        <mxCell id="IIHGYazNjYMF4p0EDvYy-170" value="1 June 202424" style="rounded=0;whiteSpace=wrap;html=1;" parent="1" vertex="1">
          <mxGeometry x="391" y="1097" width="60" height="30" as="geometry" />
        </mxCell>
        <mxCell id="IIHGYazNjYMF4p0EDvYy-171" value="" style="rounded=0;whiteSpace=wrap;html=1;" parent="1" vertex="1">
          <mxGeometry x="330" y="1168" width="120" height="90" as="geometry" />
        </mxCell>
        <mxCell id="IIHGYazNjYMF4p0EDvYy-172" value="Class Diagram v1.0" style="rounded=0;whiteSpace=wrap;html=1;" parent="1" vertex="1">
          <mxGeometry x="331" y="1167" width="120" height="30" as="geometry" />
        </mxCell>
        <mxCell id="IIHGYazNjYMF4p0EDvYy-173" value="26" style="rounded=0;whiteSpace=wrap;html=1;" parent="1" vertex="1">
          <mxGeometry x="330" y="1198" width="30" height="30" as="geometry" />
        </mxCell>
        <mxCell id="IIHGYazNjYMF4p0EDvYy-174" value="1" style="whiteSpace=wrap;html=1;aspect=fixed;" parent="1" vertex="1">
          <mxGeometry x="359.5" y="1198" width="30" height="30" as="geometry" />
        </mxCell>
        <mxCell id="IIHGYazNjYMF4p0EDvYy-175" value="1" style="whiteSpace=wrap;html=1;aspect=fixed;" parent="1" vertex="1">
          <mxGeometry x="390" y="1198" width="30" height="30" as="geometry" />
        </mxCell>
        <mxCell id="IIHGYazNjYMF4p0EDvYy-176" value="3" style="whiteSpace=wrap;html=1;aspect=fixed;" parent="1" vertex="1">
          <mxGeometry x="420" y="1198" width="30" height="30" as="geometry" />
        </mxCell>
        <mxCell id="IIHGYazNjYMF4p0EDvYy-177" value="1 June 2024" style="rounded=0;whiteSpace=wrap;html=1;" parent="1" vertex="1">
          <mxGeometry x="330" y="1228" width="60" height="30" as="geometry" />
        </mxCell>
        <mxCell id="IIHGYazNjYMF4p0EDvYy-178" value="1 June 2024" style="rounded=0;whiteSpace=wrap;html=1;" parent="1" vertex="1">
          <mxGeometry x="390" y="1228" width="60" height="30" as="geometry" />
        </mxCell>
        <mxCell id="IIHGYazNjYMF4p0EDvYy-179" value="" style="rounded=0;whiteSpace=wrap;html=1;" parent="1" vertex="1">
          <mxGeometry x="500" y="1103" width="120" height="90" as="geometry" />
        </mxCell>
        <mxCell id="IIHGYazNjYMF4p0EDvYy-180" value="Sequence Diagrams v1.0" style="rounded=0;whiteSpace=wrap;html=1;" parent="1" vertex="1">
          <mxGeometry x="500" y="1103" width="120" height="30" as="geometry" />
        </mxCell>
        <mxCell id="IIHGYazNjYMF4p0EDvYy-181" value="24" style="rounded=0;whiteSpace=wrap;html=1;" parent="1" vertex="1">
          <mxGeometry x="500" y="1133" width="30" height="30" as="geometry" />
        </mxCell>
        <mxCell id="IIHGYazNjYMF4p0EDvYy-182" value="1" style="whiteSpace=wrap;html=1;aspect=fixed;" parent="1" vertex="1">
          <mxGeometry x="529.5" y="1133" width="30" height="30" as="geometry" />
        </mxCell>
        <mxCell id="IIHGYazNjYMF4p0EDvYy-183" value="1" style="whiteSpace=wrap;html=1;aspect=fixed;" parent="1" vertex="1">
          <mxGeometry x="560" y="1133" width="30" height="30" as="geometry" />
        </mxCell>
        <mxCell id="IIHGYazNjYMF4p0EDvYy-184" value="2" style="whiteSpace=wrap;html=1;aspect=fixed;" parent="1" vertex="1">
          <mxGeometry x="590" y="1133" width="30" height="30" as="geometry" />
        </mxCell>
        <mxCell id="IIHGYazNjYMF4p0EDvYy-185" value="31 May 2024" style="rounded=0;whiteSpace=wrap;html=1;" parent="1" vertex="1">
          <mxGeometry x="500" y="1163" width="60" height="30" as="geometry" />
        </mxCell>
        <mxCell id="IIHGYazNjYMF4p0EDvYy-186" value="31 May 2024" style="rounded=0;whiteSpace=wrap;html=1;" parent="1" vertex="1">
          <mxGeometry x="560" y="1163" width="60" height="30" as="geometry" />
        </mxCell>
        <mxCell id="IIHGYazNjYMF4p0EDvYy-187" value="" style="rounded=0;whiteSpace=wrap;html=1;" parent="1" vertex="1">
          <mxGeometry x="644.5" y="1103" width="120" height="90" as="geometry" />
        </mxCell>
        <mxCell id="IIHGYazNjYMF4p0EDvYy-188" value="Robustness Diagrams v1.0" style="rounded=0;whiteSpace=wrap;html=1;" parent="1" vertex="1">
          <mxGeometry x="644.5" y="1103" width="120" height="30" as="geometry" />
        </mxCell>
        <mxCell id="IIHGYazNjYMF4p0EDvYy-189" value="23" style="rounded=0;whiteSpace=wrap;html=1;" parent="1" vertex="1">
          <mxGeometry x="644.5" y="1133" width="30" height="30" as="geometry" />
        </mxCell>
        <mxCell id="IIHGYazNjYMF4p0EDvYy-190" value="1" style="whiteSpace=wrap;html=1;aspect=fixed;" parent="1" vertex="1">
          <mxGeometry x="674" y="1133" width="30" height="30" as="geometry" />
        </mxCell>
        <mxCell id="IIHGYazNjYMF4p0EDvYy-191" value="1" style="whiteSpace=wrap;html=1;aspect=fixed;" parent="1" vertex="1">
          <mxGeometry x="704.5" y="1133" width="30" height="30" as="geometry" />
        </mxCell>
        <mxCell id="IIHGYazNjYMF4p0EDvYy-192" value="2" style="whiteSpace=wrap;html=1;aspect=fixed;" parent="1" vertex="1">
          <mxGeometry x="734.5" y="1133" width="30" height="30" as="geometry" />
        </mxCell>
        <mxCell id="IIHGYazNjYMF4p0EDvYy-193" value="30 May 2024" style="rounded=0;whiteSpace=wrap;html=1;" parent="1" vertex="1">
          <mxGeometry x="644.5" y="1163" width="60" height="30" as="geometry" />
        </mxCell>
        <mxCell id="IIHGYazNjYMF4p0EDvYy-194" value="30 May 2024" style="rounded=0;whiteSpace=wrap;html=1;" parent="1" vertex="1">
          <mxGeometry x="704.5" y="1163" width="60" height="30" as="geometry" />
        </mxCell>
        <mxCell id="IIHGYazNjYMF4p0EDvYy-203" value="" style="rounded=0;whiteSpace=wrap;html=1;" parent="1" vertex="1">
          <mxGeometry x="154.5" y="1115" width="120" height="90" as="geometry" />
        </mxCell>
        <mxCell id="IIHGYazNjYMF4p0EDvYy-204" value="Project Code v1.0" style="rounded=0;whiteSpace=wrap;html=1;" parent="1" vertex="1">
          <mxGeometry x="154.5" y="1115" width="120" height="30" as="geometry" />
        </mxCell>
        <mxCell id="IIHGYazNjYMF4p0EDvYy-205" value="27" style="rounded=0;whiteSpace=wrap;html=1;" parent="1" vertex="1">
          <mxGeometry x="154.5" y="1145" width="30" height="30" as="geometry" />
        </mxCell>
        <mxCell id="IIHGYazNjYMF4p0EDvYy-206" value="1" style="whiteSpace=wrap;html=1;aspect=fixed;" parent="1" vertex="1">
          <mxGeometry x="184" y="1145" width="30" height="30" as="geometry" />
        </mxCell>
        <mxCell id="IIHGYazNjYMF4p0EDvYy-207" value="1" style="whiteSpace=wrap;html=1;aspect=fixed;" parent="1" vertex="1">
          <mxGeometry x="214.5" y="1145" width="30" height="30" as="geometry" />
        </mxCell>
        <mxCell id="IIHGYazNjYMF4p0EDvYy-208" value="4" style="whiteSpace=wrap;html=1;aspect=fixed;" parent="1" vertex="1">
          <mxGeometry x="244.5" y="1145" width="30" height="30" as="geometry" />
        </mxCell>
        <mxCell id="IIHGYazNjYMF4p0EDvYy-209" value="2 June 2024" style="rounded=0;whiteSpace=wrap;html=1;" parent="1" vertex="1">
          <mxGeometry x="154.5" y="1175" width="60" height="30" as="geometry" />
        </mxCell>
        <mxCell id="IIHGYazNjYMF4p0EDvYy-210" value="2 June 2024" style="rounded=0;whiteSpace=wrap;html=1;" parent="1" vertex="1">
          <mxGeometry x="214.5" y="1175" width="60" height="30" as="geometry" />
        </mxCell>
        <mxCell id="IIHGYazNjYMF4p0EDvYy-211" value="&lt;font style=&quot;font-size: 10px;&quot;&gt;4o Παραδοτέο&lt;/font&gt;" style="rhombus;whiteSpace=wrap;html=1;fillColor=#F3FF4F;" parent="1" vertex="1">
          <mxGeometry x="45" y="1120" width="80" height="80" as="geometry" />
        </mxCell>
        <mxCell id="IIHGYazNjYMF4p0EDvYy-212" value="" style="endArrow=classic;html=1;rounded=0;exitX=1;exitY=0.5;exitDx=0;exitDy=0;entryX=0;entryY=0.5;entryDx=0;entryDy=0;strokeColor=#FF0800;" parent="1" source="IIHGYazNjYMF4p0EDvYy-122" target="IIHGYazNjYMF4p0EDvYy-142" edge="1">
          <mxGeometry width="50" height="50" relative="1" as="geometry">
            <mxPoint x="615" y="935" as="sourcePoint" />
            <mxPoint x="665" y="885" as="targetPoint" />
          </mxGeometry>
        </mxCell>
        <mxCell id="IIHGYazNjYMF4p0EDvYy-213" value="" style="endArrow=classic;html=1;rounded=0;entryX=0;entryY=0.5;entryDx=0;entryDy=0;strokeColor=#FF0800;exitX=1;exitY=0.5;exitDx=0;exitDy=0;" parent="1" source="IIHGYazNjYMF4p0EDvYy-145" target="IIHGYazNjYMF4p0EDvYy-126" edge="1">
          <mxGeometry width="50" height="50" relative="1" as="geometry">
            <mxPoint x="310" y="865" as="sourcePoint" />
            <mxPoint x="710" y="885" as="targetPoint" />
          </mxGeometry>
        </mxCell>
        <mxCell id="IIHGYazNjYMF4p0EDvYy-214" value="" style="endArrow=classic;html=1;rounded=0;exitX=1;exitY=0.5;exitDx=0;exitDy=0;strokeColor=#000000;entryX=0;entryY=0.5;entryDx=0;entryDy=0;" parent="1" source="IIHGYazNjYMF4p0EDvYy-145" target="IIHGYazNjYMF4p0EDvYy-150" edge="1">
          <mxGeometry width="50" height="50" relative="1" as="geometry">
            <mxPoint x="660" y="935" as="sourcePoint" />
            <mxPoint x="320" y="725" as="targetPoint" />
          </mxGeometry>
        </mxCell>
        <mxCell id="IIHGYazNjYMF4p0EDvYy-215" value="" style="endArrow=classic;html=1;rounded=0;entryX=0;entryY=0.5;entryDx=0;entryDy=0;strokeColor=#F70800;exitX=1;exitY=0.5;exitDx=0;exitDy=0;" parent="1" source="IIHGYazNjYMF4p0EDvYy-129" target="IIHGYazNjYMF4p0EDvYy-134" edge="1">
          <mxGeometry width="50" height="50" relative="1" as="geometry">
            <mxPoint x="654.5" y="969" as="sourcePoint" />
            <mxPoint x="849.5" y="889" as="targetPoint" />
          </mxGeometry>
        </mxCell>
        <mxCell id="IIHGYazNjYMF4p0EDvYy-216" value="" style="endArrow=classic;html=1;rounded=0;strokeColor=#050000;exitX=1;exitY=0.5;exitDx=0;exitDy=0;entryX=0;entryY=0.5;entryDx=0;entryDy=0;" parent="1" source="IIHGYazNjYMF4p0EDvYy-145" target="IIHGYazNjYMF4p0EDvYy-157" edge="1">
          <mxGeometry width="50" height="50" relative="1" as="geometry">
            <mxPoint x="1000" y="1035" as="sourcePoint" />
            <mxPoint x="310" y="1015" as="targetPoint" />
          </mxGeometry>
        </mxCell>
        <mxCell id="IIHGYazNjYMF4p0EDvYy-218" value="" style="endArrow=classic;html=1;rounded=0;exitX=0;exitY=0.5;exitDx=0;exitDy=0;entryX=1;entryY=0.5;entryDx=0;entryDy=0;strokeColor=#FF0800;" parent="1" source="IIHGYazNjYMF4p0EDvYy-205" target="IIHGYazNjYMF4p0EDvYy-211" edge="1">
          <mxGeometry width="50" height="50" relative="1" as="geometry">
            <mxPoint x="710" y="980" as="sourcePoint" />
            <mxPoint x="760" y="930" as="targetPoint" />
          </mxGeometry>
        </mxCell>
        <mxCell id="IIHGYazNjYMF4p0EDvYy-219" value="" style="endArrow=classic;html=1;rounded=0;exitX=1;exitY=0.5;exitDx=0;exitDy=0;entryX=0;entryY=0.5;entryDx=0;entryDy=0;strokeColor=#140100;" parent="1" source="IIHGYazNjYMF4p0EDvYy-160" target="IIHGYazNjYMF4p0EDvYy-138" edge="1">
          <mxGeometry width="50" height="50" relative="1" as="geometry">
            <mxPoint x="799.5" y="939" as="sourcePoint" />
            <mxPoint x="849.5" y="889" as="targetPoint" />
          </mxGeometry>
        </mxCell>
        <mxCell id="IIHGYazNjYMF4p0EDvYy-220" value="" style="endArrow=classic;html=1;rounded=0;exitX=1;exitY=0.5;exitDx=0;exitDy=0;strokeColor=#030000;entryX=0;entryY=0.5;entryDx=0;entryDy=0;" parent="1" source="IIHGYazNjYMF4p0EDvYy-153" target="IIHGYazNjYMF4p0EDvYy-133" edge="1">
          <mxGeometry width="50" height="50" relative="1" as="geometry">
            <mxPoint x="799.5" y="939" as="sourcePoint" />
            <mxPoint x="869.5" y="1029" as="targetPoint" />
          </mxGeometry>
        </mxCell>
        <mxCell id="IIHGYazNjYMF4p0EDvYy-221" value="2 June 2024" style="text;html=1;align=center;verticalAlign=middle;resizable=0;points=[];autosize=1;strokeColor=none;fillColor=none;" parent="1" vertex="1">
          <mxGeometry x="40" y="1092" width="90" height="30" as="geometry" />
        </mxCell>
        <mxCell id="IIHGYazNjYMF4p0EDvYy-222" value="28 May 2024" style="rounded=0;whiteSpace=wrap;html=1;" parent="1" vertex="1">
          <mxGeometry x="480.5" y="784" width="60" height="30" as="geometry" />
        </mxCell>
        <mxCell id="IIHGYazNjYMF4p0EDvYy-223" value="" style="endArrow=classic;html=1;rounded=0;exitX=0.5;exitY=1;exitDx=0;exitDy=0;strokeColor=#FF0000;entryX=0.5;entryY=0;entryDx=0;entryDy=0;" parent="1" source="IIHGYazNjYMF4p0EDvYy-56" target="IIHGYazNjYMF4p0EDvYy-262" edge="1">
          <mxGeometry width="50" height="50" relative="1" as="geometry">
            <mxPoint x="784.5" y="130" as="sourcePoint" />
            <mxPoint x="735" y="241" as="targetPoint" />
          </mxGeometry>
        </mxCell>
        <mxCell id="IIHGYazNjYMF4p0EDvYy-224" value="" style="endArrow=classic;html=1;rounded=0;exitX=0;exitY=1;exitDx=0;exitDy=0;strokeColor=#FF0000;entryX=0.5;entryY=0;entryDx=0;entryDy=0;" parent="1" source="IIHGYazNjYMF4p0EDvYy-73" target="IIHGYazNjYMF4p0EDvYy-10" edge="1">
          <mxGeometry width="50" height="50" relative="1" as="geometry">
            <mxPoint x="851" y="201" as="sourcePoint" />
            <mxPoint x="936" y="76" as="targetPoint" />
          </mxGeometry>
        </mxCell>
        <mxCell id="IIHGYazNjYMF4p0EDvYy-227" value="" style="endArrow=classic;html=1;rounded=0;strokeColor=#F70800;entryX=0.5;entryY=0;entryDx=0;entryDy=0;exitX=0;exitY=1;exitDx=0;exitDy=0;" parent="1" source="IIHGYazNjYMF4p0EDvYy-139" target="IIHGYazNjYMF4p0EDvYy-188" edge="1">
          <mxGeometry width="50" height="50" relative="1" as="geometry">
            <mxPoint x="620" y="740" as="sourcePoint" />
            <mxPoint x="660" y="760" as="targetPoint" />
          </mxGeometry>
        </mxCell>
        <mxCell id="IIHGYazNjYMF4p0EDvYy-228" value="" style="endArrow=classic;html=1;rounded=0;entryX=1;entryY=0.5;entryDx=0;entryDy=0;strokeColor=#F70800;exitX=0;exitY=0.5;exitDx=0;exitDy=0;" parent="1" source="IIHGYazNjYMF4p0EDvYy-189" target="IIHGYazNjYMF4p0EDvYy-184" edge="1">
          <mxGeometry width="50" height="50" relative="1" as="geometry">
            <mxPoint x="610" y="1160" as="sourcePoint" />
            <mxPoint x="909" y="1095" as="targetPoint" />
            <Array as="points" />
          </mxGeometry>
        </mxCell>
        <mxCell id="IIHGYazNjYMF4p0EDvYy-229" value="" style="endArrow=classic;html=1;rounded=0;exitX=0;exitY=0.5;exitDx=0;exitDy=0;entryX=1;entryY=0.5;entryDx=0;entryDy=0;strokeColor=#F70800;" parent="1" source="IIHGYazNjYMF4p0EDvYy-181" target="IIHGYazNjYMF4p0EDvYy-176" edge="1">
          <mxGeometry width="50" height="50" relative="1" as="geometry">
            <mxPoint x="377.5" y="1161.5" as="sourcePoint" />
            <mxPoint x="331.5" y="1161.5" as="targetPoint" />
          </mxGeometry>
        </mxCell>
        <mxCell id="IIHGYazNjYMF4p0EDvYy-230" value="" style="endArrow=classic;html=1;rounded=0;exitX=0;exitY=0.5;exitDx=0;exitDy=0;entryX=1;entryY=0.5;entryDx=0;entryDy=0;strokeColor=#F70800;" parent="1" source="IIHGYazNjYMF4p0EDvYy-173" target="IIHGYazNjYMF4p0EDvYy-208" edge="1">
          <mxGeometry width="50" height="50" relative="1" as="geometry">
            <mxPoint x="975" y="1115" as="sourcePoint" />
            <mxPoint x="929" y="1115" as="targetPoint" />
          </mxGeometry>
        </mxCell>
        <mxCell id="IIHGYazNjYMF4p0EDvYy-231" value="" style="endArrow=classic;html=1;rounded=0;exitX=0;exitY=0.5;exitDx=0;exitDy=0;entryX=1;entryY=0.5;entryDx=0;entryDy=0;" parent="1" source="IIHGYazNjYMF4p0EDvYy-181" target="IIHGYazNjYMF4p0EDvYy-168" edge="1">
          <mxGeometry width="50" height="50" relative="1" as="geometry">
            <mxPoint x="151.5" y="820.5" as="sourcePoint" />
            <mxPoint x="201.5" y="717.5" as="targetPoint" />
          </mxGeometry>
        </mxCell>
        <mxCell id="IIHGYazNjYMF4p0EDvYy-232" value="" style="endArrow=classic;html=1;rounded=0;exitX=0;exitY=0.5;exitDx=0;exitDy=0;entryX=1;entryY=0.5;entryDx=0;entryDy=0;" parent="1" source="IIHGYazNjYMF4p0EDvYy-165" target="IIHGYazNjYMF4p0EDvYy-208" edge="1">
          <mxGeometry width="50" height="50" relative="1" as="geometry">
            <mxPoint x="300" y="828" as="sourcePoint" />
            <mxPoint x="350" y="725" as="targetPoint" />
          </mxGeometry>
        </mxCell>
        <mxCell id="IIHGYazNjYMF4p0EDvYy-237" value="" style="rounded=0;whiteSpace=wrap;html=1;" parent="1" vertex="1">
          <mxGeometry x="190" y="418" width="120" height="90" as="geometry" />
        </mxCell>
        <mxCell id="IIHGYazNjYMF4p0EDvYy-238" value="Use Cases v0.3" style="rounded=0;whiteSpace=wrap;html=1;" parent="1" vertex="1">
          <mxGeometry x="190" y="418" width="120" height="30" as="geometry" />
        </mxCell>
        <mxCell id="IIHGYazNjYMF4p0EDvYy-277" style="edgeStyle=none;curved=1;rounded=0;orthogonalLoop=1;jettySize=auto;html=1;exitX=0;exitY=0.5;exitDx=0;exitDy=0;entryX=1;entryY=0.5;entryDx=0;entryDy=0;fontSize=12;startSize=8;endSize=8;" parent="1" source="IIHGYazNjYMF4p0EDvYy-239" target="IIHGYazNjYMF4p0EDvYy-100" edge="1">
          <mxGeometry relative="1" as="geometry" />
        </mxCell>
        <mxCell id="IIHGYazNjYMF4p0EDvYy-239" value="12" style="rounded=0;whiteSpace=wrap;html=1;" parent="1" vertex="1">
          <mxGeometry x="190" y="448" width="30" height="30" as="geometry" />
        </mxCell>
        <mxCell id="IIHGYazNjYMF4p0EDvYy-240" value="4" style="whiteSpace=wrap;html=1;aspect=fixed;" parent="1" vertex="1">
          <mxGeometry x="219.5" y="448" width="30" height="30" as="geometry" />
        </mxCell>
        <mxCell id="IIHGYazNjYMF4p0EDvYy-241" value="6" style="whiteSpace=wrap;html=1;aspect=fixed;" parent="1" vertex="1">
          <mxGeometry x="250" y="448" width="30" height="30" as="geometry" />
        </mxCell>
        <mxCell id="IIHGYazNjYMF4p0EDvYy-242" value="10" style="whiteSpace=wrap;html=1;aspect=fixed;" parent="1" vertex="1">
          <mxGeometry x="280" y="448" width="30" height="30" as="geometry" />
        </mxCell>
        <mxCell id="IIHGYazNjYMF4p0EDvYy-243" value="30 April 2024" style="rounded=0;whiteSpace=wrap;html=1;" parent="1" vertex="1">
          <mxGeometry x="190" y="478" width="60" height="30" as="geometry" />
        </mxCell>
        <mxCell id="IIHGYazNjYMF4p0EDvYy-244" value="5 May 2024" style="rounded=0;whiteSpace=wrap;html=1;" parent="1" vertex="1">
          <mxGeometry x="250" y="478" width="60" height="30" as="geometry" />
        </mxCell>
        <mxCell id="IIHGYazNjYMF4p0EDvYy-245" value="" style="rounded=0;whiteSpace=wrap;html=1;" parent="1" vertex="1">
          <mxGeometry x="190" y="521" width="120" height="90" as="geometry" />
        </mxCell>
        <mxCell id="IIHGYazNjYMF4p0EDvYy-246" value="Robustness Diagrams v0.2" style="rounded=0;whiteSpace=wrap;html=1;" parent="1" vertex="1">
          <mxGeometry x="190" y="521" width="120" height="30" as="geometry" />
        </mxCell>
        <mxCell id="IIHGYazNjYMF4p0EDvYy-278" style="edgeStyle=none;curved=1;rounded=0;orthogonalLoop=1;jettySize=auto;html=1;exitX=0;exitY=0.5;exitDx=0;exitDy=0;fontSize=12;startSize=8;endSize=8;entryX=1;entryY=0.5;entryDx=0;entryDy=0;" parent="1" source="IIHGYazNjYMF4p0EDvYy-247" target="IIHGYazNjYMF4p0EDvYy-100" edge="1">
          <mxGeometry relative="1" as="geometry">
            <mxPoint x="155" y="571.3684210526317" as="targetPoint" />
          </mxGeometry>
        </mxCell>
        <mxCell id="IIHGYazNjYMF4p0EDvYy-247" value="13" style="rounded=0;whiteSpace=wrap;html=1;" parent="1" vertex="1">
          <mxGeometry x="190" y="551" width="30" height="30" as="geometry" />
        </mxCell>
        <mxCell id="IIHGYazNjYMF4p0EDvYy-248" value="6" style="whiteSpace=wrap;html=1;aspect=fixed;" parent="1" vertex="1">
          <mxGeometry x="219.5" y="551" width="30" height="30" as="geometry" />
        </mxCell>
        <mxCell id="IIHGYazNjYMF4p0EDvYy-249" value="8" style="whiteSpace=wrap;html=1;aspect=fixed;" parent="1" vertex="1">
          <mxGeometry x="250" y="551" width="30" height="30" as="geometry" />
        </mxCell>
        <mxCell id="IIHGYazNjYMF4p0EDvYy-250" value="13" style="whiteSpace=wrap;html=1;aspect=fixed;" parent="1" vertex="1">
          <mxGeometry x="280" y="551" width="30" height="30" as="geometry" />
        </mxCell>
        <mxCell id="IIHGYazNjYMF4p0EDvYy-251" value="30 April 2024" style="rounded=0;whiteSpace=wrap;html=1;" parent="1" vertex="1">
          <mxGeometry x="190" y="581" width="60" height="30" as="geometry" />
        </mxCell>
        <mxCell id="IIHGYazNjYMF4p0EDvYy-252" value="7 May 2024" style="rounded=0;whiteSpace=wrap;html=1;" parent="1" vertex="1">
          <mxGeometry x="250" y="581" width="60" height="30" as="geometry" />
        </mxCell>
        <mxCell id="IIHGYazNjYMF4p0EDvYy-253" value="&#xa;&lt;span style=&quot;color: rgb(0, 0, 0); font-family: Helvetica; font-size: 12px; font-style: normal; font-variant-ligatures: normal; font-variant-caps: normal; font-weight: 400; letter-spacing: normal; orphans: 2; text-align: center; text-indent: 0px; text-transform: none; widows: 2; word-spacing: 0px; -webkit-text-stroke-width: 0px; background-color: rgb(251, 251, 251); text-decoration-thickness: initial; text-decoration-style: initial; text-decoration-color: initial; float: none; display: inline !important;&quot;&gt;6 April 2024&lt;/span&gt;&#xa;&#xa;" style="rounded=0;whiteSpace=wrap;html=1;" parent="1" vertex="1">
          <mxGeometry x="190" y="622.5" width="120" height="90" as="geometry" />
        </mxCell>
        <mxCell id="IIHGYazNjYMF4p0EDvYy-254" value="Sequence Diagrams v0.2" style="rounded=0;whiteSpace=wrap;html=1;" parent="1" vertex="1">
          <mxGeometry x="190" y="622.5" width="120" height="30" as="geometry" />
        </mxCell>
        <mxCell id="IIHGYazNjYMF4p0EDvYy-279" style="edgeStyle=none;curved=1;rounded=0;orthogonalLoop=1;jettySize=auto;html=1;exitX=0;exitY=0.5;exitDx=0;exitDy=0;entryX=1;entryY=0.5;entryDx=0;entryDy=0;fontSize=12;startSize=8;endSize=8;strokeColor=#FF0000;" parent="1" source="IIHGYazNjYMF4p0EDvYy-255" target="IIHGYazNjYMF4p0EDvYy-100" edge="1">
          <mxGeometry relative="1" as="geometry" />
        </mxCell>
        <mxCell id="IIHGYazNjYMF4p0EDvYy-255" value="14" style="rounded=0;whiteSpace=wrap;html=1;" parent="1" vertex="1">
          <mxGeometry x="190" y="652.5" width="30" height="30" as="geometry" />
        </mxCell>
        <mxCell id="IIHGYazNjYMF4p0EDvYy-256" value="7" style="whiteSpace=wrap;html=1;aspect=fixed;" parent="1" vertex="1">
          <mxGeometry x="219.5" y="652.5" width="30" height="30" as="geometry" />
        </mxCell>
        <mxCell id="IIHGYazNjYMF4p0EDvYy-257" value="10" style="whiteSpace=wrap;html=1;aspect=fixed;" parent="1" vertex="1">
          <mxGeometry x="250" y="652.5" width="30" height="30" as="geometry" />
        </mxCell>
        <mxCell id="IIHGYazNjYMF4p0EDvYy-258" value="15" style="whiteSpace=wrap;html=1;aspect=fixed;" parent="1" vertex="1">
          <mxGeometry x="280" y="652.5" width="30" height="30" as="geometry" />
        </mxCell>
        <mxCell id="IIHGYazNjYMF4p0EDvYy-259" value="9 May 2024" style="rounded=0;whiteSpace=wrap;html=1;" parent="1" vertex="1">
          <mxGeometry x="250" y="682.5" width="60" height="30" as="geometry" />
        </mxCell>
        <mxCell id="IIHGYazNjYMF4p0EDvYy-260" value="30 April 2024" style="rounded=0;whiteSpace=wrap;html=1;" parent="1" vertex="1">
          <mxGeometry x="190" y="682.5" width="60" height="30" as="geometry" />
        </mxCell>
        <mxCell id="IIHGYazNjYMF4p0EDvYy-261" value="" style="rounded=0;whiteSpace=wrap;html=1;" parent="1" vertex="1">
          <mxGeometry x="674.5" y="246" width="120" height="90" as="geometry" />
        </mxCell>
        <mxCell id="IIHGYazNjYMF4p0EDvYy-262" value="Use Cases v0.2" style="rounded=0;whiteSpace=wrap;html=1;" parent="1" vertex="1">
          <mxGeometry x="674.5" y="246" width="120" height="30" as="geometry" />
        </mxCell>
        <mxCell id="IIHGYazNjYMF4p0EDvYy-263" value="7" style="rounded=0;whiteSpace=wrap;html=1;" parent="1" vertex="1">
          <mxGeometry x="674.5" y="276" width="30" height="30" as="geometry" />
        </mxCell>
        <mxCell id="IIHGYazNjYMF4p0EDvYy-264" value="1" style="whiteSpace=wrap;html=1;aspect=fixed;" parent="1" vertex="1">
          <mxGeometry x="704" y="276" width="30" height="30" as="geometry" />
        </mxCell>
        <mxCell id="IIHGYazNjYMF4p0EDvYy-265" value="3" style="whiteSpace=wrap;html=1;aspect=fixed;" parent="1" vertex="1">
          <mxGeometry x="734.5" y="276" width="30" height="30" as="geometry" />
        </mxCell>
        <mxCell id="IIHGYazNjYMF4p0EDvYy-266" value="4" style="whiteSpace=wrap;html=1;aspect=fixed;" parent="1" vertex="1">
          <mxGeometry x="764.5" y="276" width="30" height="30" as="geometry" />
        </mxCell>
        <mxCell id="IIHGYazNjYMF4p0EDvYy-270" style="edgeStyle=none;curved=1;rounded=0;orthogonalLoop=1;jettySize=auto;html=1;exitX=1;exitY=1;exitDx=0;exitDy=0;entryX=0.5;entryY=0;entryDx=0;entryDy=0;fontSize=12;startSize=8;endSize=8;strokeColor=#FF0000;" parent="1" source="IIHGYazNjYMF4p0EDvYy-267" target="IIHGYazNjYMF4p0EDvYy-67" edge="1">
          <mxGeometry relative="1" as="geometry" />
        </mxCell>
        <mxCell id="IIHGYazNjYMF4p0EDvYy-267" value="8 April 2024" style="rounded=0;whiteSpace=wrap;html=1;" parent="1" vertex="1">
          <mxGeometry x="674.5" y="306" width="60" height="30" as="geometry" />
        </mxCell>
        <mxCell id="IIHGYazNjYMF4p0EDvYy-268" value="10 April 2024" style="rounded=0;whiteSpace=wrap;html=1;" parent="1" vertex="1">
          <mxGeometry x="734.5" y="306" width="60" height="30" as="geometry" />
        </mxCell>
        <mxCell id="9pA1eYLYO4tWEtrX-LZe-1" value="" style="rounded=0;whiteSpace=wrap;html=1;" parent="1" vertex="1">
          <mxGeometry x="360" y="521" width="120" height="90" as="geometry" />
        </mxCell>
        <mxCell id="9pA1eYLYO4tWEtrX-LZe-2" value="Team Plan v0.2" style="rounded=0;whiteSpace=wrap;html=1;" parent="1" vertex="1">
          <mxGeometry x="360" y="521" width="120" height="30" as="geometry" />
        </mxCell>
        <mxCell id="9pA1eYLYO4tWEtrX-LZe-11" style="edgeStyle=none;curved=1;rounded=0;orthogonalLoop=1;jettySize=auto;html=1;exitX=0;exitY=0.5;exitDx=0;exitDy=0;entryX=1;entryY=0.5;entryDx=0;entryDy=0;fontSize=12;startSize=8;endSize=8;" parent="1" source="9pA1eYLYO4tWEtrX-LZe-3" target="IIHGYazNjYMF4p0EDvYy-242" edge="1">
          <mxGeometry relative="1" as="geometry" />
        </mxCell>
        <mxCell id="9pA1eYLYO4tWEtrX-LZe-12" style="edgeStyle=none;curved=1;rounded=0;orthogonalLoop=1;jettySize=auto;html=1;exitX=0;exitY=0.5;exitDx=0;exitDy=0;entryX=1;entryY=0.5;entryDx=0;entryDy=0;fontSize=12;startSize=8;endSize=8;" parent="1" source="9pA1eYLYO4tWEtrX-LZe-3" target="IIHGYazNjYMF4p0EDvYy-250" edge="1">
          <mxGeometry relative="1" as="geometry" />
        </mxCell>
        <mxCell id="9pA1eYLYO4tWEtrX-LZe-13" style="edgeStyle=none;curved=1;rounded=0;orthogonalLoop=1;jettySize=auto;html=1;exitX=0;exitY=0.5;exitDx=0;exitDy=0;entryX=1;entryY=0.5;entryDx=0;entryDy=0;fontSize=12;startSize=8;endSize=8;strokeColor=#FF0000;" parent="1" source="9pA1eYLYO4tWEtrX-LZe-3" target="IIHGYazNjYMF4p0EDvYy-258" edge="1">
          <mxGeometry relative="1" as="geometry" />
        </mxCell>
        <mxCell id="9pA1eYLYO4tWEtrX-LZe-3" value="11" style="rounded=0;whiteSpace=wrap;html=1;" parent="1" vertex="1">
          <mxGeometry x="360" y="551" width="30" height="30" as="geometry" />
        </mxCell>
        <mxCell id="9pA1eYLYO4tWEtrX-LZe-4" value="1" style="whiteSpace=wrap;html=1;aspect=fixed;" parent="1" vertex="1">
          <mxGeometry x="389.5" y="551" width="30" height="30" as="geometry" />
        </mxCell>
        <mxCell id="9pA1eYLYO4tWEtrX-LZe-5" value="1" style="whiteSpace=wrap;html=1;aspect=fixed;" parent="1" vertex="1">
          <mxGeometry x="420" y="551" width="30" height="30" as="geometry" />
        </mxCell>
        <mxCell id="9pA1eYLYO4tWEtrX-LZe-6" value="2" style="whiteSpace=wrap;html=1;aspect=fixed;" parent="1" vertex="1">
          <mxGeometry x="450" y="551" width="30" height="30" as="geometry" />
        </mxCell>
        <mxCell id="9pA1eYLYO4tWEtrX-LZe-7" value="29 April 2024" style="rounded=0;whiteSpace=wrap;html=1;" parent="1" vertex="1">
          <mxGeometry x="360" y="581" width="60" height="30" as="geometry" />
        </mxCell>
        <mxCell id="9pA1eYLYO4tWEtrX-LZe-8" value="29 April 2024" style="rounded=0;whiteSpace=wrap;html=1;" parent="1" vertex="1">
          <mxGeometry x="420" y="581" width="60" height="30" as="geometry" />
        </mxCell>
        <mxCell id="9pA1eYLYO4tWEtrX-LZe-14" value="" style="endArrow=classic;html=1;rounded=0;fontSize=12;startSize=8;endSize=8;curved=0;entryX=1;entryY=0.5;entryDx=0;entryDy=0;exitX=0;exitY=0.5;exitDx=0;exitDy=0;strokeColor=#FF0000;" parent="1" source="IIHGYazNjYMF4p0EDvYy-76" target="IIHGYazNjYMF4p0EDvYy-91" edge="1">
          <mxGeometry width="50" height="50" relative="1" as="geometry">
            <mxPoint x="585" y="700" as="sourcePoint" />
            <mxPoint x="635" y="650" as="targetPoint" />
            <Array as="points">
              <mxPoint x="633" y="629" />
              <mxPoint x="633" y="566" />
            </Array>
          </mxGeometry>
        </mxCell>
        <mxCell id="OnjoaTtnCFRW8DmxDJwy-1" value="" style="rounded=0;whiteSpace=wrap;html=1;" parent="1" vertex="1">
          <mxGeometry x="20" y="742.5" width="120" height="90" as="geometry" />
        </mxCell>
        <mxCell id="OnjoaTtnCFRW8DmxDJwy-2" value="Project code v0.1" style="rounded=0;whiteSpace=wrap;html=1;" parent="1" vertex="1">
          <mxGeometry x="20" y="742.5" width="120" height="30" as="geometry" />
        </mxCell>
        <mxCell id="OnjoaTtnCFRW8DmxDJwy-3" value="17" style="rounded=0;whiteSpace=wrap;html=1;" parent="1" vertex="1">
          <mxGeometry x="20" y="772.5" width="30" height="30" as="geometry" />
        </mxCell>
        <mxCell id="OnjoaTtnCFRW8DmxDJwy-4" value="9" style="whiteSpace=wrap;html=1;aspect=fixed;" parent="1" vertex="1">
          <mxGeometry x="49.5" y="772.5" width="30" height="30" as="geometry" />
        </mxCell>
        <mxCell id="OnjoaTtnCFRW8DmxDJwy-5" value="13" style="whiteSpace=wrap;html=1;aspect=fixed;" parent="1" vertex="1">
          <mxGeometry x="80" y="772.5" width="30" height="30" as="geometry" />
        </mxCell>
        <mxCell id="OnjoaTtnCFRW8DmxDJwy-6" value="17" style="whiteSpace=wrap;html=1;aspect=fixed;" parent="1" vertex="1">
          <mxGeometry x="110" y="772.5" width="30" height="30" as="geometry" />
        </mxCell>
        <mxCell id="OnjoaTtnCFRW8DmxDJwy-7" value="14 May 2024" style="rounded=0;whiteSpace=wrap;html=1;" parent="1" vertex="1">
          <mxGeometry x="20" y="802.5" width="60" height="30" as="geometry" />
        </mxCell>
        <mxCell id="OnjoaTtnCFRW8DmxDJwy-8" value="26 May 2024" style="rounded=0;whiteSpace=wrap;html=1;" parent="1" vertex="1">
          <mxGeometry x="80" y="802.5" width="60" height="30" as="geometry" />
        </mxCell>
        <mxCell id="OnjoaTtnCFRW8DmxDJwy-9" style="edgeStyle=none;curved=1;rounded=0;orthogonalLoop=1;jettySize=auto;html=1;exitX=0;exitY=1;exitDx=0;exitDy=0;entryX=0.5;entryY=0;entryDx=0;entryDy=0;fontSize=12;startSize=8;endSize=8;strokeColor=#FF0000;" parent="1" source="IIHGYazNjYMF4p0EDvYy-110" target="OnjoaTtnCFRW8DmxDJwy-2" edge="1">
          <mxGeometry relative="1" as="geometry">
            <mxPoint x="200" y="678" as="sourcePoint" />
            <mxPoint x="150" y="576" as="targetPoint" />
          </mxGeometry>
        </mxCell>
        <mxCell id="OnjoaTtnCFRW8DmxDJwy-10" style="edgeStyle=orthogonalEdgeStyle;rounded=0;orthogonalLoop=1;jettySize=auto;html=1;exitX=1;exitY=1;exitDx=0;exitDy=0;entryX=0;entryY=0.5;entryDx=0;entryDy=0;fontSize=12;startSize=8;endSize=8;strokeColor=#FF0000;" parent="1" source="OnjoaTtnCFRW8DmxDJwy-7" target="IIHGYazNjYMF4p0EDvYy-122" edge="1">
          <mxGeometry relative="1" as="geometry">
            <mxPoint x="210" y="688" as="sourcePoint" />
            <mxPoint x="160" y="586" as="targetPoint" />
          </mxGeometry>
        </mxCell>
      </root>
    </mxGraphModel>
  </diagram>
</mxfile>
